<?xml version="1.0" encoding="UTF-8"?>
<svg xmlns="http://www.w3.org/2000/svg" width="24" height="24" viewBox="0 0 24 24" fill="none" stroke="currentColor" stroke-width="2" stroke-linecap="round" stroke-linejoin="round">
  <path d="M12 9H5a2 2 0 0 0-2 2v4a2 2 0 0 0 2 2h3" stroke="#3776AB"/>
  <path d="M12 15h7a2 2 0 0 0 2-2V9a2 2 0 0 0-2-2h-3" stroke="#3776AB"/>
  <path d="M8 9V5a2 2 0 0 1 2-2h4a2 2 0 0 1 2 2v5a2 2 0 0 1-2 2h-4a2 2 0 0 0-2 2v5a2 2 0 0 0 2 2h4a2 2 0 0 0 2-2v-4" stroke="#3776AB"/>
  <path d="M9 9h1" stroke="#3776AB"/>
  <path d="M14 15h1" stroke="#3776AB"/>
</svg>
