<?xml version="1.0" encoding="UTF-8"?>
<svg xmlns="http://www.w3.org/2000/svg" width="24" height="24" viewBox="0 0 24 24" fill="none" stroke="currentColor" stroke-width="2" stroke-linecap="round" stroke-linejoin="round">
  <circle cx="12" cy="12" r="2" stroke="#61DAFB"/>
  <path d="M12 6.5a9 9 0 0 1 5.656 2.014 9 9 0 0 1 2.828 5.486 9 9 0 0 1-2.828 5.486A9 9 0 0 1 12 17.5a9 9 0 0 1-5.656-2.014 9 9 0 0 1-2.828-5.486 9 9 0 0 1 2.828-5.486A9 9 0 0 1 12 6.5Z" stroke="#61DAFB"/>
  <path d="M12 6.5a9 9 0 0 1 2.828 5.486A9 9 0 0 1 12 17.5a9 9 0 0 1-2.828-5.514A9 9 0 0 1 12 6.5Z" stroke="#61DAFB"/>
</svg>
